<?xml version="1.0" encoding="UTF-8" standalone="no"?>
<!DOCTYPE svg PUBLIC "-//W3C//DTD SVG 1.1//EN" "http://www.w3.org/Graphics/SVG/1.1/DTD/svg11.dtd">
<svg width="100%" height="100%" viewBox="0 0 653 557" version="1.1" xmlns="http://www.w3.org/2000/svg" xmlns:xlink="http://www.w3.org/1999/xlink" xml:space="preserve" xmlns:serif="http://www.serif.com/" style="fill-rule:evenodd;clip-rule:evenodd;stroke-linecap:round;stroke-linejoin:round;stroke-miterlimit:1.5;">
    <g transform="matrix(1,0,0,1,-4629.814469,-1795.466122)">
        <g transform="matrix(1.266199,-0.181505,0.198179,1.382516,-989.380738,494.540395)">
            <g transform="matrix(1,0,0,1,-663.747594,-87.140767)">
                <g transform="matrix(0.728108,0.09559,-0.107033,0.68385,1168.324508,-101.569792)">
                    <path d="M5415.74,1902.001L5344.093,1902.881L5354.356,1976.112C5354.356,1976.112 5394.213,1952.286 5416.418,1944.649" style="fill:none;stroke:rgb(8,6,5);stroke-width:21.86px;"/>
                </g>
                <g transform="matrix(0.720245,0.094558,-0.107033,0.68385,1224.752474,-122.912111)">
                    <ellipse cx="5670.926" cy="1937.797" rx="264.876" ry="93.539" style="fill:none;stroke:rgb(8,6,5);stroke-width:21.98px;"/>
                </g>
                <g transform="matrix(0.720261,0.09456,-0.104151,0.665437,1204.54001,-55.654644)">
                    <path d="M5679.359,2188.341C5679.524,2188.343 5679.69,2188.344 5679.855,2188.346C5849.622,2189.922 5859.465,2185.044 5903.309,2139.154C5922.314,2119.262 5932.285,2074.124 5937.484,2029.364C5939.834,2009.134 5941.209,1988.981 5942.002,1971.271C5942.485,1960.476 5942.752,1950.589 5942.893,1942.145C5942.984,1936.621 5943.022,1931.714 5943.03,1927.576C5943.047,1918.406 5942.921,1913.006 5942.921,1913.006" style="fill:none;stroke:rgb(8,6,5);stroke-width:22.29px;"/>
                </g>
                <g transform="matrix(0.728108,0.09559,-0.107033,0.68385,1168.324508,-101.569792)">
                    <path d="M5941.033,1872.968L6015.32,1885.671L6009.489,1961.288L5941.946,1927.191" style="fill:none;stroke:rgb(8,6,5);stroke-width:21.86px;"/>
                </g>
                <g transform="matrix(0.720261,0.09456,-0.104151,0.665437,1204.54001,-55.654644)">
                    <path d="M5419.36,1892.564C5419.36,1892.564 5398.574,2081.587 5441.99,2130.884C5471.136,2163.978 5491.077,2177.817 5552.909,2183.821C5570.34,2185.514 5591.1,2186.584 5616.334,2187.287C5626.211,2187.562 5636.775,2187.781 5648.092,2187.959C5653.228,2188.04 5658.52,2188.112 5663.973,2188.178C5666.583,2188.209 5669.23,2188.239 5671.914,2188.267C5673.229,2188.281 5674.552,2188.294 5675.885,2188.308C5676.544,2188.314 5677.206,2188.321 5677.87,2188.327C5678.2,2188.33 5678.531,2188.333 5678.863,2188.336C5679.028,2188.338 5679.194,2188.339 5679.359,2188.341" style="fill:none;stroke:rgb(8,6,5);stroke-width:22.29px;"/>
                </g>
                <g transform="matrix(0.357312,0.021104,-0.028748,0.351531,3331.372974,1177.090316)">
                    <path d="M5183.595,1341.232L5221.468,1385.73C5221.468,1385.73 5324.335,1339.891 5346.719,1322.36C5357.947,1313.566 5359.65,1292.9 5355.771,1280.543C5351.892,1268.186 5337.817,1243.151 5323.446,1248.217C5294.75,1258.332 5183.595,1341.232 5183.595,1341.232Z" style="fill:none;stroke:rgb(8,6,5);stroke-width:35.23px;"/>
                </g>
                <g transform="matrix(0.764032,0.329168,0.015191,0.832974,650.285331,-1428.677434)">
                    <path d="M5939.037,1452.537L6124.333,1276.905" style="fill:none;stroke:black;stroke-width:12.37px;"/>
                </g>
                <g transform="matrix(0.773864,0.101597,-0.110931,0.708755,1503.393671,-139.680948)">
                    <g transform="matrix(0.885267,-0.465083,0.465083,0.885267,-342.550987,2396.219726)">
                        <text x="4685.395px" y="1892.394px" style="font-family:'Oliver-Regular', 'Oliver';font-size:91.667px;">r</text>
                    </g>
                    <g transform="matrix(0.952194,-0.305493,0.305493,0.952194,-344.537997,1535.046652)">
                        <text x="4732.444px" y="1868.376px" style="font-family:'Oliver-Regular', 'Oliver';font-size:91.667px;">e</text>
                    </g>
                    <g transform="matrix(0.982403,-0.186774,0.186774,0.982403,-262.046534,925.145966)">
                        <text x="4778.69px" y="1853.244px" style="font-family:'Oliver-Regular', 'Oliver';font-size:91.667px;">m</text>
                    </g>
                    <g transform="matrix(0.996182,-0.087299,0.087299,0.996182,-142.268192,429.751979)">
                        <text x="4842.21px" y="1841.425px" style="font-family:'Oliver-Regular', 'Oliver';font-size:91.667px;">a</text>
                    </g>
                    <g transform="matrix(0.999963,-0.008602,0.008602,0.999963,-15.616596,42.222777)">
                        <text x="4900.401px" y="1836.471px" style="font-family:'Oliver-Regular', 'Oliver';font-size:91.667px;">r</text>
                    </g>
                </g>
                <g transform="matrix(0.773864,0.101597,-0.110931,0.708755,1934.791602,-475.563603)">
                    <g transform="matrix(66.666667,0,0,66.666667,4416.491295,2512.990464)">
                    </g>
                    <text x="4334.225px" y="2512.99px" style="font-family:'Oliver-Regular', 'Oliver';font-size:66.667px;">AO</text>
                </g>
                <g transform="matrix(0.773864,0.101597,-0.110931,0.708755,1487.74629,-40.8648)">
                    <g transform="matrix(0.998986,0.045027,-0.045027,0.998986,103.631593,-217.989882)">
                        <text x="4890.688px" y="2191.387px" style="font-family:'Oliver-Regular', 'Oliver';font-size:91.667px;">T</text>
                    </g>
                    <g transform="matrix(0.999985,-0.005429,0.005429,0.999985,-11.83857,26.886588)">
                        <text x="4946.022px" y="2193.858px" style="font-family:'Oliver-Regular', 'Oliver';font-size:91.667px;">A</text>
                    </g>
                    <g transform="matrix(0.998644,-0.052068,0.052068,0.998644,-107.426653,263.356245)">
                        <text x="5000.785px" y="2193.478px" style="font-family:'Oliver-Regular', 'Oliver';font-size:91.667px;">C</text>
                    </g>
                    <g transform="matrix(0.994942,-0.100449,0.100449,0.994942,-194.567644,518.028734)">
                        <text x="5046.788px" y="2191.088px" style="font-family:'Oliver-Regular', 'Oliver';font-size:91.667px;">H</text>
                    </g>
                    <g transform="matrix(0.984809,-0.173643,0.173643,0.984809,-302.424601,917.225647)">
                        <text x="5090.902px" y="2187.026px" style="font-family:'Oliver-Regular', 'Oliver';font-size:91.667px;">O</text>
                    </g>
                </g>
            </g>
        </g>
    </g>
</svg>
