<?xml version="1.0" encoding="UTF-8" standalone="no"?>
<!DOCTYPE svg PUBLIC "-//W3C//DTD SVG 1.1//EN" "http://www.w3.org/Graphics/SVG/1.1/DTD/svg11.dtd">
<svg width="100%" height="100%" viewBox="0 0 1757 1120" version="1.1" xmlns="http://www.w3.org/2000/svg" xmlns:xlink="http://www.w3.org/1999/xlink" xml:space="preserve" xmlns:serif="http://www.serif.com/" style="fill-rule:evenodd;clip-rule:evenodd;stroke-linecap:round;stroke-linejoin:round;stroke-miterlimit:1.5;">
    <g transform="matrix(1,0,0,1,-362.018177,-197.261489)">
        <g transform="matrix(1.564455,0,0,1.703283,-8288.678431,-982.545513)">
            <g transform="matrix(1.502196,0,0,1.634441,-2483.698731,-2240.878743)">
                <path d="M5415.74,1902.001L5344.093,1902.881L5354.356,1976.112C5354.356,1976.112 5394.213,1952.286 5416.418,1944.649" style="fill:none;stroke:rgb(8,6,5);stroke-width:17.79px;"/>
            </g>
        </g>
        <g transform="matrix(1.564455,0,0,1.703283,-8288.678431,-982.545513)">
            <g transform="matrix(1.611244,0,0,1.634441,-3044.098204,-2308.210567)">
                <ellipse cx="5670.926" cy="1937.797" rx="264.876" ry="93.539" style="fill:none;stroke:rgb(8,6,5);stroke-width:17.26px;"/>
            </g>
        </g>
        <g transform="matrix(1.564455,0,0,1.703283,-8288.678431,-982.545513)">
            <g transform="matrix(1.611279,0,0,1.590433,-3065.329579,-2144.483429)">
                <path d="M5679.359,2188.341C5679.524,2188.343 5679.69,2188.344 5679.855,2188.346C5849.622,2189.922 5859.465,2185.044 5903.309,2139.154C5922.314,2119.262 5932.285,2074.124 5937.484,2029.364C5939.834,2009.134 5941.209,1988.981 5942.002,1971.271C5942.485,1960.476 5942.752,1950.589 5942.893,1942.145C5942.984,1936.621 5943.022,1931.714 5943.03,1927.576C5943.047,1918.406 5942.921,1913.006 5942.921,1913.006" style="fill:none;stroke:rgb(8,6,5);stroke-width:17.52px;"/>
            </g>
        </g>
        <g transform="matrix(1.564455,0,0,1.703283,-8288.678431,-982.545513)">
            <g transform="matrix(1.628834,0,0,1.634441,-3160.468077,-2240.878743)">
                <path d="M5941.033,1872.968L6015.32,1885.671L6009.489,1961.288L5941.946,1927.191" style="fill:none;stroke:rgb(8,6,5);stroke-width:17.17px;"/>
            </g>
        </g>
        <g transform="matrix(1.564455,0,0,1.703283,-8288.678431,-982.545513)">
            <g transform="matrix(1.611279,0,0,1.590433,-3065.329579,-2144.483429)">
                <path d="M5419.36,1892.564C5419.36,1892.564 5398.574,2081.587 5441.99,2130.884C5471.136,2163.978 5491.077,2177.817 5552.909,2183.821C5570.34,2185.514 5591.1,2186.584 5616.334,2187.287C5626.211,2187.562 5636.775,2187.781 5648.092,2187.959C5653.228,2188.04 5658.52,2188.112 5663.973,2188.178C5666.583,2188.209 5669.23,2188.239 5671.914,2188.267C5673.229,2188.281 5674.552,2188.294 5675.885,2188.308C5676.544,2188.314 5677.206,2188.321 5677.87,2188.327C5678.2,2188.33 5678.531,2188.333 5678.863,2188.336C5679.028,2188.338 5679.194,2188.339 5679.359,2188.341" style="fill:none;stroke:rgb(8,6,5);stroke-width:17.52px;"/>
            </g>
        </g>
        <g transform="matrix(1.564455,0,0,1.703283,-8288.678431,-982.545513)">
            <g transform="matrix(2.705525,0,0,2.493562,1728.468281,-2946.58313)">
                <g transform="matrix(58.861718,0,0,58.861718,1701.449017,1534.061861)">
                </g>
                <text x="1523.51px" y="1534.062px" style="font-family:'Oliver-Regular', 'Oliver';font-size:58.862px;">remar</text>
            </g>
        </g>
        <g transform="matrix(1.564455,0,0,1.703283,-8288.678431,-982.545513)">
            <g transform="matrix(2.705525,0,0,2.493562,1903.273731,-2851.041357)">
                <g transform="matrix(39.241145,0,0,39.241145,1571.933618,1534.061861)">
                </g>
                <text x="1523.51px" y="1534.062px" style="font-family:'Oliver-Regular', 'Oliver';font-size:39.241px;">AO</text>
            </g>
        </g>
        <g transform="matrix(1.564455,0,0,1.703283,-8288.678431,-982.545513)">
            <g transform="matrix(3.277094,0,0,3.020351,769.551582,-3366.383134)">
                <g transform="matrix(68.843556,0,0,68.843556,1723.707106,1534.061861)">
                </g>
                <text x="1523.51px" y="1534.062px" style="font-family:'Oliver-Regular', 'Oliver';font-size:68.844px;">Tacho</text>
            </g>
        </g>
    </g>
</svg>
