<?xml version="1.0" encoding="UTF-8" standalone="no"?>
<!DOCTYPE svg PUBLIC "-//W3C//DTD SVG 1.1//EN" "http://www.w3.org/Graphics/SVG/1.1/DTD/svg11.dtd">
<svg width="100%" height="100%" viewBox="0 0 24 24" version="1.1" xmlns="http://www.w3.org/2000/svg" xmlns:xlink="http://www.w3.org/1999/xlink" xml:space="preserve" xmlns:serif="http://www.serif.com/" style="fill-rule:evenodd;clip-rule:evenodd;stroke-linecap:round;stroke-linejoin:round;">
    <g transform="matrix(1.221674,0,0,1.221674,-2.660093,1.921186)">
        <path d="M6,4.75L18,4.75L18,14.75C18,15.015 17.895,15.27 17.707,15.457C17.52,15.645 17.265,15.75 17,15.75L7,15.75C6.735,15.75 6.48,15.645 6.293,15.457C6.105,15.27 6,15.015 6,14.75L6,4.75Z" style="fill:none;fill-rule:nonzero;stroke:black;stroke-width:1.5px;"/>
        <path d="M4.5,4.75L19.5,4.75" style="fill:none;fill-rule:nonzero;stroke:black;stroke-width:1.5px;"/>
        <path d="M3,7.75L6,7.75" style="fill:none;fill-rule:nonzero;stroke:black;stroke-width:1.5px;"/>
        <path d="M21,7.75L18,7.75" style="fill:none;fill-rule:nonzero;stroke:black;stroke-width:1.5px;"/>
        <path d="M9,4.75L9,3.75C9,2.954 9.316,2.191 9.879,1.629C10.441,1.066 11.204,0.75 12,0.75C12.796,0.75 13.559,1.066 14.121,1.629C14.684,2.191 15,2.954 15,3.75L15,4.75" style="fill:none;fill-rule:nonzero;stroke:black;stroke-width:1.5px;"/>
    </g>
</svg>
